<svg xmlns="http://www.w3.org/2000/svg" width="1024" height="1024" viewBox="0 0 1024 1024" role="img" aria-labelledby="title desc">
  <title id="title">Lplay icon option C - highlight bookmark</title>
  <desc id="desc">A video player tile with a highlight bookmark and play symbol.</desc>
  <defs>
    <linearGradient id="bg" x1="184" y1="160" x2="856" y2="880" gradientUnits="userSpaceOnUse">
      <stop offset="0" stop-color="#1f2625"/>
      <stop offset="0.5" stop-color="#11100e"/>
      <stop offset="1" stop-color="#17120b"/>
    </linearGradient>
    <linearGradient id="teal" x1="220" y1="238" x2="800" y2="796" gradientUnits="userSpaceOnUse">
      <stop offset="0" stop-color="#65eddf"/>
      <stop offset="1" stop-color="#218e86"/>
    </linearGradient>
    <linearGradient id="gold" x1="596" y1="179" x2="817" y2="444" gradientUnits="userSpaceOnUse">
      <stop offset="0" stop-color="#ffe189"/>
      <stop offset="1" stop-color="#ea9826"/>
    </linearGradient>
    <filter id="shadow" x="-20%" y="-20%" width="140%" height="140%" color-interpolation-filters="sRGB">
      <feDropShadow dx="0" dy="16" stdDeviation="26" flood-color="#000000" flood-opacity="0.45"/>
    </filter>
  </defs>
  <rect width="1024" height="1024" rx="222" fill="url(#bg)"/>
  <rect x="182" y="272" width="660" height="482" rx="86" fill="#12110f" stroke="url(#teal)" stroke-width="38" filter="url(#shadow)"/>
  <path d="M272 680h480" stroke="#312b25" stroke-width="34" stroke-linecap="round"/>
  <path d="M272 680h260" stroke="#f0bd52" stroke-width="34" stroke-linecap="round"/>
  <circle cx="532" cy="508" r="144" fill="#0d0c0b" stroke="#302a24" stroke-width="16"/>
  <path d="M491 421c0-25 28-40 49-27l134 82c20 12 20 42 0 54l-134 82c-21 13-49-2-49-27V421Z" fill="#f5b748"/>
  <path d="M655 179h120c31 0 56 25 56 56v254c0 25-30 38-48 20l-68-68-68 68c-18 18-48 5-48-20V235c0-31 25-56 56-56Z" fill="url(#gold)"/>
  <path d="M715 263l21 42 47 7-34 33 8 47-42-22-42 22 8-47-34-33 47-7 21-42Z" fill="#14100d" opacity="0.82"/>
</svg>
